<?xml version="1.0" encoding="utf-8"?>
<!-- Generator: Adobe Illustrator 23.0.1, SVG Export Plug-In . SVG Version: 6.00 Build 0)  -->
<svg version="1.1" xmlns="http://www.w3.org/2000/svg" xmlns:xlink="http://www.w3.org/1999/xlink" x="0px" y="0px"
	 viewBox="0 0 500 500" style="enable-background:new 0 0 500 500;" xml:space="preserve">
<style type="text/css">
	.st0{display:none;}
	.st1{display:inline;}
	.st2{clip-path:url(#SVGID_2_);}
	.st3{fill:#A41127;}
	.st4{stroke:#000000;stroke-miterlimit:10;}
	.st5{clip-path:url(#SVGID_4_);fill:#A41127;stroke:#A41127;stroke-miterlimit:10;}
</style>
<g id="Layer_1" class="st0">
	<g class="st1">
		<path d="M250,492c-64.64,0-125.41-25.17-171.12-70.88C33.17,375.41,8,314.64,8,250S33.17,124.59,78.88,78.88
			C124.59,33.17,185.36,8,250,8s125.41,25.17,171.12,70.88C466.83,124.59,492,185.36,492,250s-25.17,125.41-70.88,171.12
			C375.41,466.83,314.64,492,250,492z"/>
		<path d="M250,8.5c32.6,0,64.23,6.39,94,18.98c28.76,12.16,54.58,29.58,76.76,51.76c22.18,22.18,39.59,48.01,51.76,76.76
			c12.59,29.77,18.98,61.4,18.98,94s-6.39,64.23-18.98,94c-12.16,28.76-29.58,54.58-51.76,76.76
			c-22.18,22.18-48.01,39.59-76.76,51.76c-29.77,12.59-61.4,18.98-94,18.98s-64.23-6.39-94-18.98
			c-28.76-12.16-54.58-29.58-76.76-51.76C57.05,398.59,39.64,372.76,27.48,344C14.89,314.23,8.5,282.6,8.5,250s6.39-64.23,18.98-94
			c12.16-28.76,29.58-54.58,51.76-76.76c22.18-22.18,48.01-39.59,76.76-51.76C185.77,14.89,217.4,8.5,250,8.5 M250,7.5
			C116.07,7.5,7.5,116.07,7.5,250S116.07,492.5,250,492.5S492.5,383.93,492.5,250S383.93,7.5,250,7.5L250,7.5z"/>
	</g>
	<g class="st1">
		<defs>
			<circle id="SVGID_1_" cx="249.5" cy="250.5" r="242.5"/>
		</defs>
		<clipPath id="SVGID_2_">
			<use xlink:href="#SVGID_1_"  style="overflow:visible;"/>
		</clipPath>
		<g class="st2">
			<path class="st3" d="M202.5,484.5c-62.5,0-121.27-24.34-165.46-68.54C-7.16,371.77-31.5,313-31.5,250.5
				c0-62.5,24.34-121.27,68.54-165.46S140,16.5,202.5,16.5c62.5,0,121.27,24.34,165.46,68.54c44.2,44.2,68.54,102.96,68.54,165.46
				c0,62.5-24.34,121.27-68.54,165.46C323.77,460.16,265,484.5,202.5,484.5z"/>
			<path class="st3" d="M202.5,17c31.52,0,62.1,6.17,90.89,18.35c27.8,11.76,52.78,28.6,74.22,50.04s38.28,46.42,50.04,74.22
				C429.83,188.4,436,218.98,436,250.5s-6.17,62.1-18.35,90.89c-11.76,27.8-28.6,52.78-50.04,74.22s-46.42,38.28-74.22,50.04
				C264.6,477.83,234.02,484,202.5,484s-62.1-6.17-90.89-18.35c-27.8-11.76-52.78-28.6-74.22-50.04s-38.28-46.42-50.04-74.22
				C-24.83,312.6-31,282.02-31,250.5s6.17-62.1,18.35-90.89c11.76-27.8,28.6-52.78,50.04-74.22s46.42-38.28,74.22-50.04
				C140.4,23.17,170.98,17,202.5,17 M202.5,16C72.99,16-32,120.99-32,250.5S72.99,485,202.5,485S437,380.01,437,250.5
				S332.01,16,202.5,16L202.5,16z"/>
		</g>
	</g>
</g>
<g id="Layer_2">
	<circle class="st4" cx="250" cy="250" r="240.5"/>
	<g>
		<defs>
			<circle id="SVGID_3_" cx="249" cy="250" r="240.5"/>
		</defs>
		<clipPath id="SVGID_4_">
			<use xlink:href="#SVGID_3_"  style="overflow:visible;"/>
		</clipPath>
		<circle class="st5" cx="210" cy="250" r="219.5"/>
	</g>
</g>
</svg>
