<svg id="svg" version="1.1" xmlns="http://www.w3.org/2000/svg" xmlns:xlink="http://www.w3.org/1999/xlink" width="400" height="400" viewBox="0, 0, 400,400"><g id="svgg"><path id="path0" d="M165.600 26.417 C 69.794 35.442,2.782 125.892,16.848 227.200 C 31.633 333.699,132.201 400.521,228.000 367.500 C 328.233 332.951,371.937 205.407,316.587 108.972 C 284.826 53.636,224.838 20.836,165.600 26.417 " stroke="none" fill="#a31324" fill-rule="evenodd"></path><path id="path1" d="M187.800 22.056 C 180.141 22.559,170.701 23.833,163.000 25.404 C 156.249 26.782,150.690 28.198,153.600 27.800 C 194.649 22.178,232.169 30.624,264.800 52.831 C 353.137 112.950,366.911 245.033,293.150 324.681 C 261.060 359.331,215.298 378.342,170.419 375.666 C 166.361 375.424,162.988 375.279,162.924 375.342 C 162.861 375.406,165.732 375.938,169.304 376.525 C 275.471 393.967,374.323 320.599,384.193 217.036 C 394.666 107.155,301.440 14.600,187.800 22.056 " stroke="none" fill="#040404" fill-rule="evenodd"></path></g></svg>