<svg xmlns="http://www.w3.org/2000/svg" viewBox="0 0 164 227">
  <defs>
    <style>
      .a, .b, .c, .d, .e, .i, .j, .k, .l {
        fill: #fff;
      }

      .a, .b, .c, .d {
        stroke: #fff;
      }

      .a, .b, .c, .d, .f, .g, .i, .j, .k, .l {
        stroke-miterlimit: 10;
      }

      .a {
        stroke-width: 8px;
      }

      .b, .l {
        stroke-width: 9px;
      }

      .c, .j {
        stroke-width: 14px;
      }

      .d {
        stroke-width: 12px;
      }

      .f, .h {
        fill: none;
      }

      .f, .i, .j, .k, .l {
        stroke: #000;
      }

      .g {
        fill: #a41127;
        stroke-width: 1.5px;
      }

      .g, .h {
        stroke: #a41127;
      }

      .h {
        stroke-linecap: square;
        stroke-linejoin: round;
        stroke-width: 3px;
      }

      .i {
        stroke-width: 6px;
      }

      .k {
        stroke-width: 7px;
      }
    </style>
  </defs>
  <title>soul</title>
  <circle class="a" cx="134" cy="211" r="12"/>
  <circle class="b" cx="11.5" cy="179.5" r="7"/>
  <circle class="b" cx="144.5" cy="193.5" r="6"/>
  <circle class="c" cx="146" cy="52" r="11"/>
  <circle class="d" cx="64" cy="43" r="6.5"/>
  <circle class="c" cx="62" cy="20" r="13"/>
  <g>
    <path class="e" d="M165.5,104.5a28.61,28.61,0,0,0,4-7,24.48,24.48,0,0,0,2-7c.42-3.62-.95-4.3-.4-8a27.91,27.91,0,0,1,1.4-5,31.37,31.37,0,0,1,2-5c.36-.65,1.73-3,6-6a38,38,0,0,1,14-6c4.84-.94,9.18-1.78,14,0,4,1.46,6.61,4.09,10,3a7.11,7.11,0,0,0,3-2c.45-.5,1.66-2,2-6,.27-3.14.52-6-1-9-3-6-10.38-6.93-11-7-7.4-.83-12.42,4.38-13,5a23.87,23.87,0,0,1,2-16c2.44-4.55,5.88-6.91,9-9,10.34-6.92,21.31-6.93,25.55-6.88,5,.06,11.34.13,18.31,3.92,3.25,1.77,10.57,5.76,13.08,13.08,4.35,12.68-10.58,21.12-5.94,32.88,2.31,5.86,9.56,12.74,13,16,2.27,2.15,4.56,4.06,6,7.66.36.92,2.84,7.24-.09,12.16-2.23,3.73-5.11,2.51-12.95,8.48-4.5,3.43-5.48,5.3-5.94,6.7a15,15,0,0,0,0,8c1,3.26,2.71,4.75,2,6s-3.22,1.05-4,1c-7.51-.47-10.26,3.22-20.08,4.24-7.63.78-13.33-.64-23.3-3.27a117.11,117.11,0,0,1-16.79-5.74c-17-7.36-17.56-10.94-27.6-12.45-2.83-.43-7.9-.89-8.23-2.78C162.34,107.58,163.45,107.1,165.5,104.5Z" transform="translate(-126 -2)"/>
    <path class="e" d="M166.63,105.16c3.63-4.93,6.59-11.27,6.14-17.52-.43-6,.53-12.58,5-17.18,5.33-5.5,13.21-8.29,20.66-9.34,5.83-.83,9.52.86,14.66,3,2,.81,3.84,1.29,5.94.61,9.38-3.05,7.06-18.83.56-23.46a16.9,16.9,0,0,0-22,2.34l2.18.57C194.22,16,235.18,7.65,254.1,18.44c4.66,2.66,9.27,6.27,11.08,11.53,1.94,5.62-.47,10.81-2.95,15.78-4,7.91-5.53,14.52-.12,22.23,5.53,7.89,17.49,14.12,17.38,24.74-.06,6.21-4,7.07-8.41,9.48-3.89,2.12-8.61,5.13-11,9-1.67,2.79-1.8,6.41-1.14,9.53.25,1.15,2.21,4.26,2,5.15-.48,2.24-4.74,1.2-6.3,1.4-4.07.52-7.79,2.42-11.77,3.35-6.44,1.5-12.78,1-19.17-.38A137.56,137.56,0,0,1,185,115.57,47.57,47.57,0,0,0,175.7,111a38.65,38.65,0,0,0-5.64-1.16,16.12,16.12,0,0,1-3.47-.57c-3-1.15-1.83-1.9-.17-3.88,1.08-1.27-.76-3.13-1.84-1.84-1.81,2.14-5.2,4.67-1.89,7.11s9.17,1.75,13.1,3.12c4.18,1.46,7.92,4.13,11.8,6.21a124.74,124.74,0,0,0,18.67,8.15c12.73,4.32,26.7,8.33,40,4.3,2.38-.72,4.68-1.73,7.11-2.26s5.51.21,8-.54c4.76-1.45,1.26-5.53.4-8.52-2.26-7.88,3.32-12.38,9.49-16,3.19-1.9,7.22-2.8,9.27-6.14,6.28-10.24-4.24-19.25-10.48-25.7C265,68,259.33,61.81,261.49,54c1.42-5.15,4.86-9.51,6.32-14.65,3-10.59-4.42-18.81-13.13-23.59-21.14-11.6-63.35-1-57.44,29.08a1.31,1.31,0,0,0,2.18.57c7.48-7.78,22.75-5.39,23,7,.05,2.61-.09,6-1.81,8.14-2.89,3.54-7,.68-10.15-.68-5.41-2.36-10.86-1.83-16.49-.62-7.88,1.7-17.48,6-21.14,13.7-1.85,3.89-3.37,8.45-3,12.79.58,7-1.27,12.44-5.42,18.07C163.37,105.2,165.64,106.5,166.63,105.16Z" transform="translate(-126 -2)"/>
  </g>
  <g>
    <ellipse class="e" cx="80.1" cy="154.71" rx="64.56" ry="66.21"/>
    <path class="e" d="M206.1,91c35.3,0,64,29.46,64,65.66s-28.72,65.67-64,65.67-64-29.46-64-65.67S170.81,91,206.1,91m0-1.09C170.15,90,141,119.84,141,156.7s29.15,66.76,65.1,66.76,65.11-29.89,65.11-66.76S242.06,90,206.1,90Z" transform="translate(-126 -2)"/>
  </g>
  <g>
    <path d="M205.79,219.86c-33.71,0-61.14-28.13-61.14-62.71s27.43-62.7,61.14-62.7,61.15,28.13,61.15,62.7S239.51,219.86,205.79,219.86Z" transform="translate(-126 -2)"/>
    <path d="M205.79,95c33.43,0,60.63,27.9,60.63,62.19s-27.2,62.2-60.63,62.2-60.63-27.9-60.63-62.2S172.36,95,205.79,95m0-1c-34,0-61.66,28.31-61.66,63.22s27.61,63.23,61.66,63.23,61.66-28.31,61.66-63.23-27.61-63.22-61.66-63.22Z" transform="translate(-126 -2)"/>
  </g>
  <g>
    <path d="M149.14,154.65A60.25,60.25,0,0,1,159.5,117.5c1.34-1.78,1.72-2,4-5a125.27,125.27,0,0,0,9.43-14.19c7.35-13.41,2.29-18.27,8.76-25s15.9-7.41,17.53-7.51c11.44-.68,15.45,6.58,21.28,3.76,6.51-3.15,7.79-15.22,5.85-22.81a17.44,17.44,0,0,0-4.6-8.49,16.21,16.21,0,0,0-8-4.22c-2.32-.53-5.45-1.26-8.25.46A8,8,0,0,0,203,37a37.73,37.73,0,0,1,3.71-5.85c1.78-2.31,6.75-8.73,15.07-11.67,9.13-3.23,17.3-.5,22.54,1.25,6.9,2.3,13.35,4.45,16.27,10,5.11,9.7-7,17.35-5,31.3,2.4,16.58,22.2,21.35,20,31.3-1.76,8.06-16.92,7.48-18.78,17.53-.64,3.46.3,8,1.25,12.52,1,4.88,1.81,5.75,2.5,8.76,2.06,8.93-1,17.07-6.26,28.8a45.4,45.4,0,0,1-8.76,13.77,36.26,36.26,0,0,1-10,7.51c-5,2.52-10.56,3.85-21.91,3.77-10.6-.08-19.48-.08-31.19-3.67s-27.39-8.4-32.55-23A26.31,26.31,0,0,1,149.14,154.65Z" transform="translate(-126 -2)"/>
    <path d="M150.39,154.65c-.6-12.55,2.58-26.16,10.13-36.43,4.18-5.7,8.65-11.06,12.28-17.17,3.81-6.43,5.11-12.55,6.37-19.75,1.37-7.85,8.72-12.19,16.05-13.73,6.39-1.35,11.81.29,17.72,2.65C224.87,75,229,60.87,228.35,51.44c-.52-7-3.41-13.84-10-17.14-5.5-2.77-12.54-3.45-16.47,2l2.16,1.27c6.38-12,18.19-20.54,32.34-17.83,10.55,2,28,7.24,23.09,21.09-3.31,9.31-7.8,17.34-3.43,27.3,3.48,7.94,10.87,12,16.13,18.46,7.51,9.23-6.19,12.4-11.77,16.67-8.29,6.32-4.51,17.95-1.88,26.35,3.77,12.07-1.89,24.76-7.58,35.36-6.07,11.28-16.38,18.38-29.1,19.45a111.16,111.16,0,0,1-43.5-4.75c-12.25-3.95-26.46-10.6-28-25-.16-1.59-2.67-1.6-2.5,0,1.21,11.66,10,19.35,20.25,23.9a100.93,100.93,0,0,0,39,8.58c12.24.27,24.4.37,34.58-7.33,10.45-7.91,16.94-22.17,19.85-34.69a30,30,0,0,0-.61-16.14c-2.07-6.63-6-17.2-.13-22.77,5.06-4.78,17.29-6.22,16.11-15.44-.46-3.62-3.28-6.43-5.8-8.82-3.92-3.72-8.21-7.1-11.15-11.71-4-6.25-4.1-13.42-1.6-20.24,1.69-4.6,4.7-9.18,4.71-14.24,0-12.51-18.14-17.29-27.84-18.7-14.56-2.1-26.78,6.89-33.35,19.28a1.25,1.25,0,0,0,2.16,1.27c2.94-4.11,9-3.15,13-1.14a15.63,15.63,0,0,1,8,10.58c1.53,6.07,1.55,15.9-3.71,20.31-4.48,3.76-10.14-1-14.85-2.18a27.56,27.56,0,0,0-13.56.35c-5.15,1.36-10.29,4.09-13.52,8.42-2.84,3.81-2.77,8.23-3.6,12.71-2.3,12.36-11.38,21.25-18.18,31.22-7.24,10.62-10.44,24.06-9.83,36.78C148,156.25,150.47,156.26,150.39,154.65Z" transform="translate(-126 -2)"/>
  </g>
  <path class="f" d="M280.5,88.5" transform="translate(-126 -2)"/>
  <circle class="g" cx="80.73" cy="161.41" r="37.56"/>
  <circle class="h" cx="80.5" cy="161.41" r="47.5"/>
  <circle class="i" cx="144.5" cy="193.5" r="3"/>
  <circle class="j" cx="62" cy="20" r="9.5"/>
  <circle class="k" cx="64" cy="43" r="3.5"/>
  <circle class="l" cx="146" cy="52" r="7.5"/>
  <circle class="i" cx="11.5" cy="179.5" r="4"/>
  <circle class="k" cx="134" cy="211" r="8.5"/>
  <path class="e" d="M203.06,39.71a10.34,10.34,0,0,1,9.09-2,1.31,1.31,0,0,0,.7-2.52,13.13,13.13,0,0,0-11.64,2.62c-1.3,1.06.56,2.9,1.85,1.85Z" transform="translate(-126 -2)"/>
</svg>
