<?xml version="1.0" encoding="utf-8"?>
<!-- Generator: Adobe Illustrator 23.0.1, SVG Export Plug-In . SVG Version: 6.00 Build 0)  -->
<svg version="1.1" baseProfile="tiny" id="Layer_1" xmlns="http://www.w3.org/2000/svg" xmlns:xlink="http://www.w3.org/1999/xlink"
	 x="0px" y="0px" viewBox="0 0 397 280" xml:space="preserve">
<g transform="translate(0.000000,280.000000) scale(0.100000,-0.100000)">
	<path fill="#FFFFFF" stroke="#FFFFFF" stroke-width="20" d="M723,1840c-81-15-211-66-280-111c-184-120-321-369-311-564l3-60l29,90
		c15,50,39,117,53,150c56,135,171,268,284,330l51,27l-44-53c-190-235-113-577,159-707c66-31,87-36,171-40c81-3,107-1,161,17
		c157,54,265,169,307,326c28,103,10,244-42,332c-13,23-24,44-24,48c0,14,90-58,150-121c87-91,103-115,182-269c72-139,83-144,42-19
		c-74,227-252,448-444,548C1047,1829,849,1862,723,1840z"/>
	<path fill="#FFFFFF" stroke="#FFFFFF" stroke-width="20" d="M3075,1840c-90-15-163-38-237-77c-189-99-369-321-442-547
		c-41-125-30-120,42,19c79,154,95,178,182,269c60,63,150,135,150,121c0-4-11-25-24-48c-52-88-70-229-42-332c42-157,150-272,307-326
		c54-18,80-20,161-17c84,4,105,9,171,40c272,130,349,472,159,707l-44,53l51-27c113-62,228-195,284-330c14-33,38-100,53-150l29-90
		l3,60c10,197-126,442-314,565C3427,1820,3230,1864,3075,1840z"/>
</g>
<g transform="translate(0.000000,280.000000) scale(0.100000,-0.100000)">
	<g>
		<path fill="#FFFFFF" d="M723,1840c-81-15-211-66-280-111c-184-120-321-369-311-564l3-60l29,90c15,50,39,117,53,150
			c56,135,171,268,284,330l51,27l-44-53c-190-235-113-577,159-707c66-31,87-36,171-40c81-3,107-1,161,17c157,54,265,169,307,326
			c28,103,10,244-42,332c-13,23-24,44-24,48c0,14,90-58,150-121c87-91,103-115,182-269c72-139,83-144,42-19c-74,227-252,448-444,548
			C1047,1829,849,1862,723,1840z"/>
		<path fill="#FFFFFF" d="M3075,1840c-90-15-163-38-237-77c-189-99-369-321-442-547c-41-125-30-120,42,19c79,154,95,178,182,269
			c60,63,150,135,150,121c0-4-11-25-24-48c-52-88-70-229-42-332c42-157,150-272,307-326c54-18,80-20,161-17c84,4,105,9,171,40
			c272,130,349,472,159,707l-44,53l51-27c113-62,228-195,284-330c14-33,38-100,53-150l29-90l3,60c10,197-126,442-314,565
			C3427,1820,3230,1864,3075,1840z"/>
	</g>
	<g>
		<path fill="none" stroke="#FFFFFF" stroke-width="14" stroke-linecap="round" stroke-linejoin="round" d="M723,1840
			c-81-15-211-66-280-111c-184-120-321-369-311-564l3-60l29,90c15,50,39,117,53,150c56,135,171,268,284,330l51,27l-44-53
			c-190-235-113-577,159-707c66-31,87-36,171-40c81-3,107-1,161,17c157,54,265,169,307,326c28,103,10,244-42,332c-13,23-24,44-24,48
			c0,14,90-58,150-121c87-91,103-115,182-269c72-139,83-144,42-19c-74,227-252,448-444,548C1047,1829,849,1862,723,1840z"/>
		<path fill="none" stroke="#FFFFFF" stroke-width="14" stroke-linecap="round" stroke-linejoin="round" d="M3075,1840
			c-90-15-163-38-237-77c-189-99-369-321-442-547c-41-125-30-120,42,19c79,154,95,178,182,269c60,63,150,135,150,121
			c0-4-11-25-24-48c-52-88-70-229-42-332c42-157,150-272,307-326c54-18,80-20,161-17c84,4,105,9,171,40c272,130,349,472,159,707
			l-44,53l51-27c113-62,228-195,284-330c14-33,38-100,53-150l29-90l3,60c10,197-126,442-314,565C3427,1820,3230,1864,3075,1840z"/>
	</g>
</g>
<g transform="translate(0.000000,280.000000) scale(0.100000,-0.100000)">
	<path d="M723,1840c-81-15-211-66-280-111c-184-120-321-369-311-564l3-60l29,90c15,50,39,117,53,150c56,135,171,268,284,330l51,27
		l-44-53c-190-235-113-577,159-707c66-31,87-36,171-40c81-3,107-1,161,17c157,54,265,169,307,326c28,103,10,244-42,332
		c-13,23-24,44-24,48c0,14,90-58,150-121c87-91,103-115,182-269c72-139,83-144,42-19c-74,227-252,448-444,548
		C1047,1829,849,1862,723,1840z"/>
	<path d="M3075,1840c-90-15-163-38-237-77c-189-99-369-321-442-547c-41-125-30-120,42,19c79,154,95,178,182,269
		c60,63,150,135,150,121c0-4-11-25-24-48c-52-88-70-229-42-332c42-157,150-272,307-326c54-18,80-20,161-17c84,4,105,9,171,40
		c272,130,349,472,159,707l-44,53l51-27c113-62,228-195,284-330c14-33,38-100,53-150l29-90l3,60c10,197-126,442-314,565
		C3427,1820,3230,1864,3075,1840z"/>
</g>
<circle fill="#A41127" cx="86.4" cy="145.4" r="28.6"/>
<circle fill="#A41127" cx="315.3" cy="142.6" r="28.6"/>
<circle cx="86.4" cy="145.4" r="15.5"/>
<circle cx="315.3" cy="142.6" r="15.5"/>
</svg>
