<?xml version="1.0" encoding="utf-8"?>
<!-- Generator: Adobe Illustrator 23.0.1, SVG Export Plug-In . SVG Version: 6.00 Build 0)  -->
<svg version="1.1" id="Layer_1" xmlns="http://www.w3.org/2000/svg" xmlns:xlink="http://www.w3.org/1999/xlink" x="0px" y="0px"
	 viewBox="0 0 500 347.9" enable-background="new 0 0 500 347.9" xml:space="preserve">
<g>
	<path fill="#FFFFFF" stroke="#FFFFFF" stroke-miterlimit="10" d="M74.9,291.5c-8.7-22-13.2-45.4-13.2-69.3
		c0-103.8,84.4-188.3,188.3-188.3s188.3,84.5,188.3,188.3c0,23.9-4.4,47.2-13.2,69.3C377.6,246.7,315.4,222,250,222
		S122.4,246.6,74.9,291.5z"/>
	<path fill="#FFFFFF" stroke="#FFFFFF" stroke-miterlimit="10" d="M250,34.2c25.4,0,50,5,73.2,14.8c22.4,9.5,42.5,23,59.8,40.3
		s30.8,37.4,40.3,59.8c9.7,23.1,14.7,47.7,14.7,73.1c0,23.8-4.4,46.9-13,68.8c-47.5-44.7-109.7-69.3-175-69.3S122.6,246.3,75,291
		c-8.6-21.9-13-45.1-13-68.8c0-25.4,5-50,14.8-73.2c9.5-22.4,23-42.5,40.3-59.8s37.4-30.8,59.8-40.3C200,39.2,224.6,34.2,250,34.2
		 M250,33.7c-104.1,0-188.5,84.4-188.5,188.5c0,24.6,4.7,48.1,13.3,69.7c45.7-43.2,107.3-69.7,175.2-69.7s129.5,26.5,175.2,69.7
		c8.6-21.6,13.3-45.1,13.3-69.7C438.5,118.1,354.1,33.7,250,33.7L250,33.7z"/>
	<path fill="#FFFFFF" stroke="#FFFFFF" stroke-miterlimit="10" d="M250,34.7c25.3,0,49.9,5,73,14.7c22.3,9.4,42.4,23,59.6,40.2
		s30.7,37.3,40.2,59.6c9.8,23.1,14.7,47.7,14.7,73c0,23.5-4.3,46.3-12.7,68c-47.6-44.5-109.6-69-174.8-69s-127.2,24.5-174.8,69
		c-8.4-21.7-12.7-44.5-12.7-68c0-25.3,5-49.9,14.7-73c9.4-22.3,23-42.4,40.2-59.6s37.3-30.7,59.6-40.2
		C200.1,39.7,224.7,34.7,250,34.7 M250,33.7c-104.1,0-188.5,84.4-188.5,188.5c0,24.6,4.7,48.1,13.3,69.7
		c45.7-43.2,107.3-69.7,175.2-69.7s129.5,26.5,175.2,69.7c8.6-21.6,13.3-45.1,13.3-69.7C438.5,118.1,354.1,33.7,250,33.7L250,33.7z"
		/>
	<path fill="#FFFFFF" stroke="#FFFFFF" stroke-miterlimit="10" d="M250,34.7c25.3,0,49.9,5,73,14.7c22.3,9.4,42.4,23,59.6,40.2
		s30.7,37.3,40.2,59.6c9.8,23.1,14.7,47.7,14.7,73c0,23.5-4.3,46.3-12.7,68c-47.6-44.5-109.6-69-174.8-69s-127.2,24.5-174.8,69
		c-8.4-21.7-12.7-44.5-12.7-68c0-25.3,5-49.9,14.7-73c9.4-22.3,23-42.4,40.2-59.6s37.3-30.7,59.6-40.2
		C200.1,39.7,224.7,34.7,250,34.7 M250,33.7c-104.1,0-188.5,84.4-188.5,188.5c0,24.6,4.7,48.1,13.3,69.7
		c45.7-43.2,107.3-69.7,175.2-69.7s129.5,26.5,175.2,69.7c8.6-21.6,13.3-45.1,13.3-69.7C438.5,118.1,354.1,33.7,250,33.7L250,33.7z"
		/>
</g>
<g>
	<line fill="none" stroke="#000000" stroke-width="0.3" x1="-5" y1="-5.8" x2="-5" y2="30.2"/>
	<line fill="none" stroke="#000000" stroke-width="0.3" x1="-59" y1="48.2" x2="-23" y2="48.2"/>
	<line fill="none" stroke="#000000" stroke-width="0.3" x1="-59" y1="746.7" x2="-23" y2="746.7"/>
	<line fill="none" stroke="#000000" stroke-width="0.3" x1="-5" y1="800.7" x2="-5" y2="764.7"/>
	<line fill="none" stroke="#000000" stroke-width="0.3" x1="505" y1="-5.8" x2="505" y2="30.2"/>
	<line fill="none" stroke="#000000" stroke-width="0.3" x1="559" y1="48.2" x2="523" y2="48.2"/>
	<line fill="none" stroke="#000000" stroke-width="0.3" x1="559" y1="746.7" x2="523" y2="746.7"/>
	<line fill="none" stroke="#000000" stroke-width="0.3" x1="505" y1="800.7" x2="505" y2="764.7"/>
</g>
<g>
	<path fill="#A41127" d="M74.9,306c-8.7-22-13.2-45.4-13.2-69.3c0-103.8,84.4-188.3,188.3-188.3s188.3,84.5,188.3,188.3
		c0,23.9-4.4,47.2-13.2,69.3c-47.5-44.8-109.7-69.5-175.1-69.5S122.4,261.1,74.9,306z"/>
	<path fill="#A41127" d="M250,48.7c25.4,0,50,5,73.2,14.8c22.4,9.5,42.5,23,59.8,40.3s30.8,37.4,40.3,59.8
		c9.7,23.1,14.7,47.7,14.7,73.1c0,23.8-4.4,46.9-13,68.8c-47.5-44.7-109.7-69.3-175-69.3s-127.4,24.6-175,69.3
		c-8.6-21.9-13-45.1-13-68.8c0-25.4,5-50,14.8-73.2c9.5-22.4,23-42.5,40.3-59.8s37.4-30.8,59.8-40.3C200,53.7,224.6,48.7,250,48.7
		 M250,48.2c-104.1,0-188.5,84.4-188.5,188.5c0,24.6,4.7,48.1,13.3,69.7c45.7-43.2,107.3-69.7,175.2-69.7s129.5,26.5,175.2,69.7
		c8.6-21.6,13.3-45.1,13.3-69.7C438.5,132.6,354.1,48.2,250,48.2L250,48.2z"/>
	<path fill="#A41127" d="M250,49.2c25.3,0,49.9,5,73,14.7c22.3,9.4,42.4,23,59.6,40.2s30.7,37.3,40.2,59.6
		c9.8,23.1,14.7,47.7,14.7,73c0,23.5-4.3,46.3-12.7,68c-47.6-44.5-109.6-69-174.8-69s-127.2,24.5-174.8,69
		c-8.4-21.7-12.7-44.5-12.7-68c0-25.3,5-49.9,14.7-73c9.4-22.3,23-42.4,40.2-59.6s37.3-30.7,59.6-40.2
		C200.1,54.2,224.7,49.2,250,49.2 M250,48.2c-104.1,0-188.5,84.4-188.5,188.5c0,24.6,4.7,48.1,13.3,69.7
		c45.7-43.2,107.3-69.7,175.2-69.7s129.5,26.5,175.2,69.7c8.6-21.6,13.3-45.1,13.3-69.7C438.5,132.6,354.1,48.2,250,48.2L250,48.2z"
		/>
	<path fill="#A41127" d="M250,49.2c25.3,0,49.9,5,73,14.7c22.3,9.4,42.4,23,59.6,40.2s30.7,37.3,40.2,59.6
		c9.8,23.1,14.7,47.7,14.7,73c0,23.5-4.3,46.3-12.7,68c-47.6-44.5-109.6-69-174.8-69s-127.2,24.5-174.8,69
		c-8.4-21.7-12.7-44.5-12.7-68c0-25.3,5-49.9,14.7-73c9.4-22.3,23-42.4,40.2-59.6s37.3-30.7,59.6-40.2
		C200.1,54.2,224.7,49.2,250,49.2 M250,48.2c-104.1,0-188.5,84.4-188.5,188.5c0,24.6,4.7,48.1,13.3,69.7
		c45.7-43.2,107.3-69.7,175.2-69.7s129.5,26.5,175.2,69.7c8.6-21.6,13.3-45.1,13.3-69.7C438.5,132.6,354.1,48.2,250,48.2L250,48.2z"
		/>
</g>
<g>
	<path fill="none" d="M421.5,313.5c-0.3,0.6-0.5,1.1-0.8,1.7c23.7,21.6,43.3,47.7,57.4,77h2C465.8,362.2,445.8,335.6,421.5,313.5z"
		/>
	<path fill="none" d="M19.9,392.2h3c14-28.9,33.3-54.8,56.6-76.3c-0.4-0.8-0.7-1.6-1.1-2.3C54.2,335.6,34.2,362.2,19.9,392.2z"/>
	<path d="M250,247.2c-66,0-126.2,25.1-171.5,66.3c0.4,0.8,0.7,1.6,1.1,2.3c45-41.4,105-66.7,171-66.7c65.6,0,125.3,25,170.2,66
		c0.3-0.6,0.5-1.1,0.8-1.7C376.2,272.3,316,247.2,250,247.2z"/>
</g>
<g>
	<g>
		<g>
			<defs>
				<path id="SVGID_1_" d="M438.5,236.7c0,24.6-4.7,48.1-13.3,69.7c-45.7-43.2-107.3-69.7-175.2-69.7s-129.5,26.5-175.2,69.7
					c-8.6-21.6-13.3-45.1-13.3-69.7c0-104.1,84.4-188.5,188.5-188.5S438.5,132.6,438.5,236.7z"/>
			</defs>
			<clipPath id="SVGID_2_">
				<use xlink:href="#SVGID_1_"  overflow="visible"/>
			</clipPath>
			
				<circle clip-path="url(#SVGID_2_)" fill="#750009" stroke="#A41127" stroke-width="3" stroke-linecap="round" stroke-linejoin="round" stroke-miterlimit="10" cx="179" cy="221.7" r="160.5"/>
		</g>
	</g>
</g>
</svg>
