<?xml version="1.0" encoding="utf-8"?>
<!-- Generator: Adobe Illustrator 23.0.1, SVG Export Plug-In . SVG Version: 6.00 Build 0)  -->
<svg version="1.1" id="Layer_1" xmlns="http://www.w3.org/2000/svg" xmlns:xlink="http://www.w3.org/1999/xlink" x="0px" y="0px"
	 viewBox="0 0 397 280" enable-background="new 0 0 397 280" xml:space="preserve">
<path fill="#FFFFFF" d="M384.9,169.6c-3.5-10.1-7.6-21-9.4-25.1c-3.4-7.9-8.2-12.6-14.2-18.5c-6.6-6.5-14.7-14.6-27.8-18.5
	c-17.5-5.1-32.5,0.4-37.2,2.1c-9.5,3.6-15.4,8.6-23.5,15.6c-2.1,1.8-11.8,10.2-21.2,23.2c-5.6,7.8-8.6,11.9-11.6,18.7
	c-2.1,4.7-3.1,8.2-4.2,8.1c-1.6-0.2-2.6-8.7-1.6-16.4c1.4-10.5,6.2-17.8,11.6-25.8c3.6-5.3,10-14.5,21.5-23.4
	c5.3-4.1,14.3-10.8,28.1-14.7c16.1-4.5,29.8-2.7,37.2-1.1c4.7,1,18,4.4,31.3,14.7c10.8,8.4,16.5,17.3,17.7,19.3
	c6.6,10.7,8.4,20.2,8.8,22.7c1.1,6.2,0.8,10.6,0.5,14.7c-0.1,2.2-0.8,10.5-2.7,10.7C387.1,176.1,385.9,172.6,384.9,169.6z"/>
<circle fill="#FFFFFF" cx="315.3" cy="145.4" r="51.1"/>
<circle fill="#FFFFFF" cx="86.4" cy="145.4" r="51.1"/>
<path fill="#FFFFFF" d="M15.8,169.6c3.5-10.1,7.6-21,9.4-25.1c3.4-7.9,8.2-12.6,14.2-18.5c6.6-6.5,14.7-14.6,27.8-18.5
	c17.5-5.1,32.5,0.4,37.2,2.1c9.5,3.6,15.4,8.6,23.5,15.6c2.1,1.8,11.8,10.2,21.2,23.2c5.6,7.8,8.6,11.9,11.6,18.7
	c2.1,4.7,3.1,8.2,4.2,8.1c1.6-0.2,2.6-8.7,1.6-16.4c-1.4-10.5-6.2-17.8-11.6-25.8c-3.6-5.3-10-14.5-21.5-23.4
	c-5.3-4.1-14.3-10.8-28.1-14.7c-16.1-4.5-29.8-2.7-37.2-1.1c-4.7,1-18,4.4-31.3,14.7c-10.8,8.4-16.5,17.3-17.7,19.3
	c-6.6,10.7-8.4,20.2-8.8,22.7c-1.1,6.2-0.8,10.6-0.5,14.7c0.1,2.2,0.8,10.5,2.7,10.7C13.6,176.1,14.8,172.6,15.8,169.6z"/>
<g transform="translate(0.000000,280.000000) scale(0.100000,-0.100000)">
	<g>
		<path fill="#FFFFFF" d="M723,1840c-81-15-211-66-280-111c-184-120-321-369-311-564l3-60l29,90c15,50,39,117,53,150
			c56,135,171,268,284,330l51,27l-44-53c-190-235-113-577,159-707c66-31,87-36,171-40c81-3,107-1,161,17c157,54,265,169,307,326
			c28,103,10,244-42,332c-13,23-24,44-24,48c0,14,90-58,150-121c87-91,103-115,182-269c72-139,83-144,42-19c-74,227-252,448-444,548
			C1047,1829,849,1862,723,1840z"/>
		<path fill="#FFFFFF" d="M3075,1840c-90-15-163-38-237-77c-189-99-369-321-442-547c-41-125-30-120,42,19c79,154,95,178,182,269
			c60,63,150,135,150,121c0-4-11-25-24-48c-52-88-70-229-42-332c42-157,150-272,307-326c54-18,80-20,161-17c84,4,105,9,171,40
			c272,130,349,472,159,707l-44,53l51-27c113-62,228-195,284-330c14-33,38-100,53-150l29-90l3,60c10,197-126,442-314,565
			C3427,1820,3230,1864,3075,1840z"/>
	</g>
</g>
<g transform="translate(0.000000,280.000000) scale(0.100000,-0.100000)">
	<path d="M723,1840c-81-15-211-66-280-111c-184-120-321-369-311-564l3-60l29,90c15,50,39,117,53,150c56,135,171,268,284,330l51,27
		l-44-53c-6-7.3-14.2-17.9-23.2-31.1c-18.7-27.5-66.1-103.5-78.6-208c-19.9-166.4,62.5-290.8,76.5-311.3C527,1034,589,979.3,667,942
		c66-31,87-36,171-40c81-3,107-1,161,17c157,54,265,169,307,326c28,103,10,244-42,332c-13,23-24,44-24,48c0,14,90-58,150-121
		c87-91,103-115,182-269c72-139,83-144,42-19c-74,227-252,448-444,548C1047,1829,849,1862,723,1840z"/>
	<path d="M3075,1840c-90-15-163-38-237-77c-189-99-369-321-442-547c-41-125-30-120,42,19c79,154,95,178,182,269
		c60,63,150,135,150,121c0-4-11-25-24-48c-52-88-70-229-42-332c42-157,150-272,307-326c54-18,80-20,161-17c84,4,105,9,171,40
		c272,130,349,472,159,707l-44,53l51-27c113-62,228-195,284-330c14-33,38-100,53-150l29-90l3,60c10,197-126,442-314,565
		C3427,1820,3230,1864,3075,1840z"/>
</g>
<circle fill="#A41127" cx="86.4" cy="145.4" r="28.6"/>
<circle fill="#A41127" cx="315.3" cy="142.6" r="28.6"/>
<circle cx="86.4" cy="145.4" r="15.5"/>
<circle cx="315.3" cy="142.6" r="15.5"/>
</svg>
