<svg xmlns="http://www.w3.org/2000/svg" viewBox="0 0 164 227">
  <defs>
    <style>
      .a, .b, .c, .d, .e {
        fill: #fff;
      }

      .a, .b, .c, .d {
        stroke: #fff;
      }

      .a, .b, .c, .d, .f, .h, .i, .k, .l, .m, .n {
        stroke-miterlimit: 10;
      }

      .a {
        stroke-width: 8px;
      }

      .b, .n {
        stroke-width: 9px;
      }

      .c {
        stroke-width: 14px;
      }

      .d, .l {
        stroke-width: 12px;
      }

      .f, .g, .k, .l, .m, .n {
        fill: #a41127;
      }

      .f, .k, .l, .m, .n {
        stroke: #a41127;
      }

      .f, .i {
        stroke-width: 1.5px;
      }

      .h, .j {
        fill: none;
      }

      .h, .i, .j {
        stroke: #000;
      }

      .j {
        stroke-linecap: square;
        stroke-linejoin: round;
        stroke-width: 3px;
      }

      .k {
        stroke-width: 6px;
      }

      .m {
        stroke-width: 7px;
      }
    </style>
  </defs>
  <title>soul red</title>
  <circle class="a" cx="30" cy="211" r="12"/>
  <circle class="b" cx="152.5" cy="179.5" r="7"/>
  <circle class="b" cx="19.5" cy="193.5" r="6"/>
  <circle class="c" cx="18" cy="52" r="11"/>
  <circle class="d" cx="100" cy="43" r="6.5"/>
  <circle class="c" cx="102" cy="20" r="13"/>
  <g>
    <path class="e" d="M248,104.5a28.61,28.61,0,0,1-4-7,24.48,24.48,0,0,1-2-7c-.42-3.62.95-4.3.4-8a27.91,27.91,0,0,0-1.4-5,31.37,31.37,0,0,0-2-5c-.36-.65-1.73-3-6-6a38,38,0,0,0-14-6c-4.84-.94-9.18-1.78-14,0-4,1.46-6.61,4.09-10,3a7.11,7.11,0,0,1-3-2c-.45-.5-1.66-2-2-6-.27-3.14-.52-6,1-9,3-6,10.38-6.93,11-7,7.4-.83,12.42,4.38,13,5a23.87,23.87,0,0,0-2-16c-2.44-4.55-5.88-6.91-9-9-10.34-6.92-21.31-6.93-25.55-6.88-5,.06-11.34.13-18.31,3.92-3.25,1.77-10.57,5.76-13.08,13.08C142.71,42.3,157.64,50.74,153,62.5c-2.31,5.86-9.56,12.74-13,16-2.27,2.15-4.56,4.06-6,7.66-.36.92-2.84,7.24.09,12.16,2.23,3.73,5.11,2.51,12.95,8.48,4.5,3.43,5.48,5.3,5.94,6.7a15,15,0,0,1,0,8c-1,3.26-2.71,4.75-2,6s3.22,1.05,4,1c7.51-.47,10.26,3.22,20.08,4.24,7.63.78,13.33-.64,23.3-3.27a117.11,117.11,0,0,0,16.79-5.74c17-7.36,17.56-10.94,27.6-12.45,2.83-.43,7.9-.89,8.23-2.78C251.16,107.58,250.05,107.1,248,104.5Z" transform="translate(-123.5 -2)"/>
    <path class="e" d="M249.13,103.84C245,98.3,243,92.64,243.71,85.77c.42-4.31-1.19-8.93-3-12.79-3.62-7.66-13.28-12-21.14-13.7-5.58-1.2-11-1.72-16.34.55-3.26,1.38-7.22,4.06-10.3.75-1.8-1.95-1.84-5.61-1.81-8.14.13-12.46,15.54-14.76,23-7a1.31,1.31,0,0,0,2.18-.57c5.24-26.63-27.11-37.11-48.13-32.64-9.65,2-21.45,9.32-23,19.9-1.7,11.57,11.92,20.77,5.58,32.12-5.43,9.71-18.31,15.18-19.24,27.15-1,13.28,14.27,11.68,19.66,21.18a11.51,11.51,0,0,1,.67,8.42c-.45,1.65-2.55,4.27-2.22,6.22.69,4,7.42,2.39,10,2.88,5.78,1.09,10.91,3.68,16.91,4.09,6.37.42,12.55-.94,18.68-2.51a138.81,138.81,0,0,0,23.24-8c5.53-2.51,10.61-5.73,16-8.46,4.89-2.48,10.42-1.89,15.28-4s1.48-5-.78-7.65c-1.08-1.29-2.92.56-1.84,1.84s2.9,2.06.94,3.61c-.67.53-2.63.55-3.45.68-1.7.27-3.41.46-5.08.87a34,34,0,0,0-8.57,3.6c-10,5.59-20,10.42-31,13.52-12.33,3.46-23,5.28-35.35,1.1a29.69,29.69,0,0,0-5.72-1.48c-1.05-.13-4.47.54-5.34-.1-1.86-1.35.44-4,.89-5.72a16,16,0,0,0,.35-6.42c-1.3-8.06-10.45-11.44-16.67-15-4.71-2.71-4.67-8.55-2.89-13.18,2-5.24,7.43-8.81,11.18-12.82,6.17-6.59,11-13.73,7.5-22.85-1.51-3.93-3.91-7.48-5.26-11.47-2.17-6.44-.19-12.44,4.73-17,9.05-8.36,22.16-10.13,34-8.29,15,2.34,29.81,12.86,26.5,29.68l2.18-.57a16.93,16.93,0,0,0-21.51-2.67c-6.86,4.5-9.55,20.65.09,23.79a8.13,8.13,0,0,0,5.94-.61c5.09-2.14,8.92-3.78,14.66-3,7.28,1,14.8,3.7,20.16,8.88,4.8,4.63,5.92,11.36,5.47,17.64s2.5,12.58,6.14,17.52C247.86,106.5,250.13,105.2,249.13,103.84Z" transform="translate(-123.5 -2)"/>
  </g>
  <g>
    <ellipse class="e" cx="83.9" cy="154.71" rx="64.56" ry="66.21"/>
    <path class="e" d="M207.4,91c35.29,0,64,29.46,64,65.66s-28.72,65.67-64,65.67-64-29.46-64-65.67S172.1,91,207.4,91m0-1.09c-36,0-65.11,29.89-65.11,66.75s29.15,66.76,65.11,66.76,65.1-29.89,65.1-66.76S243.35,90,207.4,90Z" transform="translate(-123.5 -2)"/>
  </g>
  <ellipse class="f" cx="84.21" cy="155.15" rx="61.66" ry="63.23"/>
  <g>
    <path class="g" d="M264.36,154.65A60.25,60.25,0,0,0,254,117.5c-1.34-1.78-1.72-2-4-5a125.27,125.27,0,0,1-9.43-14.19c-7.35-13.41-2.29-18.27-8.76-25s-15.9-7.41-17.53-7.51c-11.44-.68-15.45,6.58-21.28,3.76-6.51-3.15-7.79-15.22-5.85-22.81a17.44,17.44,0,0,1,4.6-8.49,16.21,16.21,0,0,1,8-4.22c2.32-.53,5.45-1.26,8.25.46a8,8,0,0,1,2.51,2.5,37.73,37.73,0,0,0-3.71-5.85c-1.78-2.31-6.75-8.73-15.07-11.67-9.13-3.23-17.3-.5-22.54,1.25-6.9,2.3-13.35,4.45-16.27,10-5.11,9.7,7,17.35,5,31.3-2.4,16.58-22.2,21.35-20,31.3,1.76,8.06,16.92,7.48,18.78,17.53.64,3.46-.3,8-1.25,12.52-1,4.88-1.81,5.75-2.5,8.76-2.06,8.93,1,17.07,6.26,28.8A45.4,45.4,0,0,0,168,174.68a36.26,36.26,0,0,0,10,7.51c5,2.52,10.56,3.85,21.91,3.77,10.6-.08,19.48-.08,31.19-3.67s27.39-8.4,32.55-23A26.31,26.31,0,0,0,264.36,154.65Z" transform="translate(-123.5 -2)"/>
    <path class="g" d="M265.86,154.65a62.63,62.63,0,0,0-8.66-35c-5.73-9.56-14.27-17.24-18-28-1.66-4.77-1.29-10-3.17-14.69-2-5-6.88-8.43-11.68-10.39a30.07,30.07,0,0,0-13.12-2.29c-5.26.34-9.43,3.64-14.43,4.28-8.82,1.13-9.54-13.39-8.65-19.16a17.72,17.72,0,0,1,4.67-10.12c3.81-3.7,12.7-6.76,16.43-1.55a1.5,1.5,0,0,0,2.59-1.51c-5.45-10.27-15.08-19-27.13-19.71-6.75-.42-13.25,1.74-19.51,4C160,22.36,154.37,24.8,151.64,30c-5.19,9.82,5.49,19.83,5,29.87C156,72.46,144.78,76.87,138.38,86c-5.43,7.72,1,13.06,7.67,16.43a28.86,28.86,0,0,1,6.11,3.66c3.92,3.43,3.44,8.34,2.61,13-1,5.72-3.53,11.22-3.92,17-.45,6.72,1.84,13.27,4.36,19.37s5.18,12.39,9.38,17.62c7.68,9.56,18.06,13.81,30.07,14.3,16.22.66,31.79-1.21,47-7,11.74-4.5,22.82-12.29,24.21-25.69.2-1.91-2.8-1.9-3,0-1.34,12.89-13.25,19.74-24.34,23.66-12.44,4.4-24.67,6.07-37.82,6.14-12.17.07-22.94-1.59-31.69-10.83-4.63-4.87-7.42-10.78-10-16.88-2.79-6.47-5.64-13.46-5.14-20.65.66-9.34,8.57-20.8,2.61-29.73-3.67-5.49-18.52-7.8-17.11-15.58.59-3.26,3.76-5.78,6-7.89,3.25-3,6.59-5.86,9.23-9.42,5.93-8,6-17.27,2.35-26.26-2-4.93-5.46-10.4-2.74-15.75C157.49,25,166.71,22.87,173.09,21c15.48-4.5,28.88,3,36.14,16.7l2.59-1.51c-3.7-5.16-9.75-4.95-15.22-2.82-5.91,2.3-9.65,7.41-11,13.48-1.77,7.87-.49,26.71,11.8,24.63,6.21-1,10.73-4.77,17.48-4.2S229.88,71,233,77.44c2.58,5.35,1.95,12,4.34,17.55,3.21,7.52,8.28,14.47,13.38,20.8,8.79,10.9,12.84,24.92,12.18,38.86C262.77,156.58,265.77,156.57,265.86,154.65Z" transform="translate(-123.5 -2)"/>
  </g>
  <path class="h" d="M133,88.5" transform="translate(-123.5 -2)"/>
  <circle class="i" cx="83.27" cy="161.41" r="37.56"/>
  <circle class="j" cx="83.5" cy="161.41" r="47.5"/>
  <circle class="k" cx="19.5" cy="193.5" r="3"/>
  <circle class="l" cx="102" cy="20" r="9.5"/>
  <circle class="m" cx="100" cy="43" r="3.5"/>
  <circle class="n" cx="18" cy="52" r="7.5"/>
  <circle class="k" cx="152.5" cy="179.5" r="4"/>
  <circle class="m" cx="30" cy="211" r="8.5"/>
  <path class="e" d="M212.29,37.86a13.13,13.13,0,0,0-11.64-2.62,1.31,1.31,0,0,0,.7,2.52,10.34,10.34,0,0,1,9.09,2c1.29,1,3.15-.79,1.85-1.85Z" transform="translate(-123.5 -2)"/>
</svg>
